<svg xmlns="http://www.w3.org/2000/svg" xmlns:xlink="http://www.w3.org/1999/xlink" viewBox="0 0 32 32" width="37.99" height="37.95" style="" filter="none">
    
    <g>
    <path d="M7.111 14.222c0.982 0 1.778 0.796 1.778 1.778v7.111c0 0.982-0.796 1.778-1.778 1.778h-1.778c-0.982 0-1.778-0.796-1.778-1.778v-8.889h3.556zM28.444 14.222v8.889c0 0.982-0.796 1.778-1.778 1.778h-1.778c-0.982 0-1.778-0.796-1.778-1.778v-7.111c0-0.982 0.796-1.778 1.778-1.778h3.556zM27.556 20.444c0.491 0 0.889 0.398 0.889 0.889v3.264c-0.026 3.625-1.732 5.634-4.924 5.634h-6.624c-0.491 0-0.889-0.398-0.889-0.889s0.398-0.889 0.889-0.889h6.624c2.142 0 3.126-1.159 3.146-3.862l0-3.258c0-0.491 0.398-0.889 0.889-0.889zM16 1.778c6.873 0 12.444 5.572 12.444 12.444h-1.778c0-5.891-4.776-10.667-10.667-10.667s-10.667 4.776-10.667 10.667h-1.778c0-6.873 5.572-12.444 12.444-12.444z" fill="rgba(16,16,16,1)"></path>
    </g>
  </svg>